<svg xmlns="http://www.w3.org/2000/svg" width="137.82" height="137.82" viewBox="0 0 36.465 36.465">
  <g paint-order="markers stroke fill">
    <path fill="currentColor" d="M18.232 0C8.145 0 0 8.145 0 18.232 0 28.32 8.145 36.465 18.232 36.465c10.088 0 18.233-8.145 18.233-18.233C36.465 8.145 28.32 0 18.232 0zm0 1.465A16.714 16.714 0 0 1 35 18.232 16.714 16.714 0 0 1 18.232 35 16.714 16.714 0 0 1 1.465 18.232 16.714 16.714 0 0 1 18.232 1.465z"/>
    <path fill="currentColor" d="M25.732 11.9a1.332 1.332 0 0 0-.941.391l-9.059 9.059-4.058-4.059a1.332 1.332 0 0 0-1.883 0 1.332 1.332 0 0 0 0 1.883l5 5a1.332 1.332 0 0 0 1.883 0l10-10a1.332 1.332 0 0 0 0-1.883 1.332 1.332 0 0 0-.942-.39Z"/>
  </g>
</svg>
