<?xml version="1.0" encoding="UTF-8" standalone="no"?>
<svg
   width="800px"
   height="800px"
   viewBox="0 0 512 512"
   version="1.1"
   xml:space="preserve"
   id="svg1"
   sodipodi:docname="nav_arrow_backwards.svg"
   inkscape:version="1.4 (e7c3feb1, 2024-10-09)"
   xmlns:inkscape="http://www.inkscape.org/namespaces/inkscape"
   xmlns:sodipodi="http://sodipodi.sourceforge.net/DTD/sodipodi-0.dtd"
   xmlns="http://www.w3.org/2000/svg"
   xmlns:svg="http://www.w3.org/2000/svg"><defs
   id="defs1" /><sodipodi:namedview
   id="namedview1"
   pagecolor="#ffffff"
   bordercolor="#000000"
   borderopacity="0.25"
   inkscape:showpageshadow="2"
   inkscape:pageopacity="0.0"
   inkscape:pagecheckerboard="0"
   inkscape:deskcolor="#d1d1d1"
   inkscape:zoom="0.0725"
   inkscape:cx="400"
   inkscape:cy="393.10345"
   inkscape:window-width="1512"
   inkscape:window-height="840"
   inkscape:window-x="0"
   inkscape:window-y="38"
   inkscape:window-maximized="1"
   inkscape:current-layer="svg1" />

<g
   id="Layer_1"
   transform="matrix(-1,0,0,1,511.9925,0)" />
<g
   id="Layer_2"
   transform="matrix(-1,0,0,1,511.9925,0)">
<g
   id="g1">
<path
   fill="currentColor"
   d="m 295,382.12 c 3.12,3.12 7.22,4.69 11.31,4.69 4.09,0 8.19,-1.56 11.31,-4.69 L 432.43,267.31 c 0.7,-0.7 1.32,-1.46 1.86,-2.25 0.03,-0.04 0.07,-0.09 0.1,-0.13 0.24,-0.35 0.45,-0.72 0.66,-1.09 0.05,-0.09 0.1,-0.17 0.15,-0.26 0.19,-0.35 0.35,-0.7 0.51,-1.06 0.05,-0.12 0.12,-0.24 0.17,-0.36 0.14,-0.34 0.26,-0.69 0.38,-1.03 0.05,-0.15 0.11,-0.3 0.16,-0.45 0.11,-0.35 0.19,-0.7 0.27,-1.06 0.04,-0.16 0.08,-0.31 0.11,-0.47 0.08,-0.42 0.14,-0.84 0.19,-1.26 0.01,-0.1 0.03,-0.2 0.04,-0.3 0.11,-1.07 0.11,-2.14 0,-3.21 -0.02,-0.17 -0.05,-0.34 -0.07,-0.52 -0.05,-0.34 -0.09,-0.69 -0.16,-1.02 -0.05,-0.24 -0.12,-0.48 -0.17,-0.72 -0.07,-0.27 -0.12,-0.53 -0.2,-0.8 -0.08,-0.25 -0.17,-0.5 -0.26,-0.74 -0.09,-0.24 -0.17,-0.49 -0.27,-0.73 -0.1,-0.25 -0.22,-0.49 -0.34,-0.73 -0.11,-0.23 -0.21,-0.46 -0.33,-0.69 -0.13,-0.25 -0.29,-0.49 -0.43,-0.74 -0.12,-0.2 -0.23,-0.4 -0.37,-0.6 -0.2,-0.3 -0.42,-0.59 -0.65,-0.88 -0.1,-0.12 -0.18,-0.25 -0.28,-0.37 -0.35,-0.43 -0.72,-0.84 -1.12,-1.23 L 317.63,129.88 c -6.25,-6.25 -16.38,-6.25 -22.63,0 -6.25,6.25 -6.25,16.38 0,22.63 L 382.49,240 H 90.88 c -8.84,0 -16,7.16 -16,16 0,8.84 7.16,16 16,16 H 382.5 L 295,359.5 c -6.25,6.24 -6.25,16.38 0,22.62 z"
   id="path1" />
</g>
</g>

</svg>
