<svg xmlns="http://www.w3.org/2000/svg" xml:space="preserve" id="svg1" width="97.31" height="97.31" version="1.1" viewBox="0 0 25.746 25.746">
  <g id="layer1" transform="translate(-636.003 34.565)">
    <g id="g20" stroke-linecap="round" paint-order="markers stroke fill" transform="translate(6.402 -3.122)">
      <path id="path30640-3" fill="currentColor" d="M642.87-28.894c-3.28.047-6.56 2.454-8.046 7.279l-1.874-3.781-1.578.782 3.129 6.311 6.311-3.128-.782-1.578-3.682 1.825c1.371-4.472 4.185-6.212 6.802-6.12 2.762.095 5.481 2.274 6.18 6.343a.793.793 0 0 0 .916.649.793.793 0 0 0 .647-.917c-.802-4.667-4.119-7.538-7.688-7.662a6.797 6.797 0 0 0-.335-.003z"/>
      <path id="path14-3-2" fill="currentColor" stroke-linejoin="round" stroke-width="1.963" d="m650.441-18.78-6.31 3.128.781 1.578 3.671-1.82c-1.378 4.428-4.179 6.15-6.784 6.06-2.762-.096-5.481-2.277-6.18-6.346a.793.793 0 0 0-.916-.646.793.793 0 0 0-.647.916c.802 4.668 4.12 7.536 7.688 7.66 3.38.117 6.824-2.272 8.368-7.23l1.88 3.793 1.578-.782z"/>
    </g>
  </g>
</svg>
