<svg xmlns="http://www.w3.org/2000/svg" xml:space="preserve" id="svg1" width="97.31" height="97.31" version="1.1" viewBox="0 0 25.746 25.746">
  <g id="layer1" transform="translate(147.649 335.46)">
    <g id="g30826-3-2" transform="matrix(.9731 0 0 .9731 -166.959 -417.85)">
      <path id="path30813-7-3" fill="currentColor" fill-opacity="1" stroke="none" stroke-dasharray="none" stroke-linecap="round" stroke-linejoin="round" stroke-width="1.257" d="M28.085 89.581a1.663 1.663 0 0 0-1.616 2.067l1.389 5.547H25.59a1.035 1.035 0 0 0-1.036 1.033 1.035 1.035 0 0 0 1.036 1.037h2.101l-1.222 4.881a1.663 1.663 0 0 0 1.616 2.065h9.978a1.663 1.663 0 0 0 1.614-2.065l-1.222-4.881h2.103a1.035 1.035 0 0 0 1.034-1.037 1.035 1.035 0 0 0-1.034-1.033h-2.27l1.389-5.547a1.663 1.663 0 0 0-1.614-2.067zm2.129 3.327h5.719l-1.073 4.287h-3.574zm.905 6.357h3.908l.906 3.621h-5.72z" paint-order="fill markers stroke"/>
    </g>
  </g>
</svg>
