<svg xmlns="http://www.w3.org/2000/svg" xml:space="preserve" id="svg1" width="97.31" height="97.31" version="1.1" viewBox="0 0 25.746 25.746">
  <g id="layer1" transform="translate(96.156 335.492)">
    <g id="g30827-8-4" transform="matrix(.9731 0 0 .9731 -141.212 -450.032)">
      <path id="path30823-5-3" fill="currentColor" fill-opacity="1" stroke="none" stroke-dasharray="none" stroke-linecap="round" stroke-linejoin="round" stroke-width="1.257" d="M32.85 122.619a9.26 9.26 0 0 0-4.407 1.238c-4.412 2.547-5.938 8.238-3.391 12.65l.007.01a9.254 9.254 0 0 0 2.026 2.399 1.663 1.663 0 0 0 2.64-.732 3.893 3.893 0 0 1 1.401-1.393 3.88 3.88 0 0 1 5.318 1.422c-.1-.278-.1-.278 0 0v.001c.043.11.098.217.164.316.037.072.08.14.127.206.595.7 1.645.783 2.344.187a9.278 9.278 0 0 0 2.013-11.675h-.002a9.264 9.264 0 0 0-8.24-4.629zm.078 3.325a5.93 5.93 0 0 1 5.282 2.966 5.912 5.912 0 0 1-.787 6.993 6.132 6.132 0 0 0-4.518-1.823 6.042 6.042 0 0 0-2.878.81c-.001 0-.002 0-.003.003a4.92 4.92 0 0 0-1.255 1.045 5.969 5.969 0 0 1-.84-1.103l-.002-.003a5.91 5.91 0 0 1 2.178-8.095 5.928 5.928 0 0 1 2.823-.793z" paint-order="fill markers stroke"/>
    </g>
    <g id="g30828-3-9" transform="matrix(.9731 0 0 .9731 -163.097 -450.064)">
      <path id="rect30811-2-5" fill="currentColor" fill-opacity="1" stroke="none" stroke-dasharray="none" stroke-linecap="round" stroke-linejoin="round" stroke-width="1.257" d="M82.022 120.832a1.663 1.663 0 0 0-1.404.769l-7.084 11.14a1.663 1.663 0 0 0 .348 2.18l7.084 5.807a1.663 1.663 0 0 0 2.11 0l7.083-5.807a1.663 1.663 0 0 0 .349-2.18l-7.084-11.14a1.663 1.663 0 0 0-1.402-.769zm1.034 6.387 3.855 6.064-3.855 3.16zm-2.07.003v9.219l-3.855-3.158z" paint-order="fill markers stroke"/>
    </g>
  </g>
</svg>
