<svg xmlns="http://www.w3.org/2000/svg" xml:space="preserve" id="svg1" width="97.31" height="97.31" version="1.1" viewBox="0 0 25.746 25.746">
  <g id="layer1" transform="translate(70.41 335.492)">
    <g id="g30829-8-8" transform="matrix(.9731 0 0 .9731 -172.108 -450.064)">
      <path id="path30817-2-2" fill="currentColor" fill-opacity="1" stroke="none" stroke-dasharray="none" stroke-linecap="round" stroke-linejoin="round" stroke-width="1.257" d="M114.264 122.129a5.277 5.277 0 0 0-5.318 4.866 5.295 5.295 0 0 0 1.505 4.133c.147.149.338.242.501.373-.108 2.188.492 4.365 2.052 5.954a1.663 1.663 0 0 0 0 .003c3.054 3.1 8.094 3.14 11.194.086 3.101-3.053 3.14-8.093.087-11.194-1.565-1.586-3.734-2.219-5.925-2.144-.125-.163-.214-.353-.358-.5a1.663 1.663 0 0 0-.005-.008 5.279 5.279 0 0 0-3.733-1.569zm-.024 3.305a1.965 1.965 0 0 1 1.73 1.083 1.663 1.663 0 0 0 1.806.886 4.58 4.58 0 0 1 4.139 1.281 4.561 4.561 0 0 1-.049 6.488 4.565 4.565 0 0 1-6.49-.05 4.582 4.582 0 0 1-1.217-4.154 1.663 1.663 0 0 0-.852-1.815 1.974 1.974 0 0 1-1.046-1.895 1.97 1.97 0 0 1 .582-1.248c.394-.388.896-.58 1.396-.576zm4.426 4.298a2.211 2.211 0 0 0-2.212 2.21 2.211 2.211 0 0 0 2.212 2.212 2.211 2.211 0 0 0 2.21-2.212 2.211 2.211 0 0 0-2.21-2.21z" paint-order="fill markers stroke"/>
    </g>
    <g id="g5" transform="translate(5.343 21.431)">
      <path id="path2" fill="currentColor" fill-opacity="1" stroke="none" stroke-linecap="round" stroke-linejoin="round" stroke-width=".973" d="M-39.287-352.27a1.482 1.482 0 0 0-1.42 1.904l.73 2.455-4.367 2.587a1.482 1.482 0 0 0-.494 2.072l4.305 6.74a1.482 1.482 0 0 0 1.246.683h4.305a1.482 1.482 0 0 0 1.4-1.97l-.687-1.97 4.434-3.061a1.482 1.482 0 0 0 .407-2.017l-4.305-6.74a1.482 1.482 0 0 0-1.249-.684zm1.987 2.962h1.507l3.098 4.85-4.187 2.893a1.482 1.482 0 0 0-.557 1.707l.372 1.066h-1.406l-3.043-4.764 4.043-2.393a1.482 1.482 0 0 0 .667-1.698z" paint-order="markers stroke fill"/>
    </g>
  </g>
</svg>
